# xmcd
#
# Track frame offsets: 
#        150
#        22108
#        40117
#        62924
#        81576
#        101194
#        118629
#        140146
#        160570
#        179626
#        198810
#        221094
#        240773
#        261790
#        278146
#        300004
#        315464
#
# Disc length: 4478 seconds
#
# Revision: 5
# Processed by: cddbd v1.5.2PL0 Copyright (c) Steve Scherf et al.
# Submitted via: ExactAudioCopy v1.3
#
DISCID=ec117c11
DTITLE=林憶蓮 - 愛蓮說 憶蓮
DYEAR=1996
DGENRE=Pop
TTITLE0=一蓮串
TTITLE1=灰色
TTITLE2=下雨天 (& Blue Jeans)
TTITLE3=三更半夜
TTITLE4=滴汗
TTITLE5=薔薇之戀
TTITLE6=燒
TTITLE7=愛的廢墟
TTITLE8=瘋了
TTITLE9=一分鐘都市一分鐘戀愛
TTITLE10=愛上一個不回家的人
TTITLE11=傾斜
TTITLE12=放縱
TTITLE13=逃離鋼筋森林
TTITLE14=情人的眼淚
TTITLE15=痴纏
TTITLE16=怱怱
EXTD=YEAR: 1996
EXTT0=
EXTT1=
EXTT2=
EXTT3=
EXTT4=
EXTT5=
EXTT6=
EXTT7=
EXTT8=
EXTT9=
EXTT10=
EXTT11=
EXTT12=
EXTT13=
EXTT14=
EXTT15=
EXTT16=
PLAYORDER=
